# xmcd CD database file
#
# Track frame offsets:
#	150
#	12586
#	27942
#	42879
#	54700
#	67588
#	80008
#	93964
#	112367
#	126157
#	142994
#	154805
#	170778
#	188670
#	198789
#	214327
#	229805
#	242914
#	258682
#	273746
#	288086
#
# Disc length: 3974 seconds
#
# Revision: 0
# Processed by: cddbd v1.5.1PL0 Copyright (c) Steve Scherf et al.
# Submitted via: CDex 1.50beta9
#
DISCID=390f8415
DTITLE=470 Curtis Magee - 20 Great Country Songs
DYEAR=2004
DGENRE=Country
TTITLE0=Birmingham Turnaround
TTITLE1=Past The Point If Rescue
TTITLE2=Tonight We Just Might
TTITLE3=Hillbilly Rock
TTITLE4=Small Town Saturday Night
TTITLE5=Streets Of Bakerfield
TTITLE6=Just Call Me Lonesome
TTITLE7=All You Do Is Bring Me Down
TTITLE8=Driving My Life Away
TTITLE9=Lonestar State Of Mine
TTITLE10=Summertime Blues
TTITLE11=Living On Love
TTITLE12=Chatahoochie
TTITLE13=Tall Tall Trees
TTITLE14=Cotton Eyed Joe
TTITLE15=Every Second, Every Minute
TTITLE16=A Better Man
TTITLE17=Mercury Blues
TTITLE18=Acher Breaky Heart
TTITLE19=Fireman
TTITLE20=00000
EXTD=YEAR: 2004
EXTT0=
EXTT1=
EXTT2=
EXTT3=
EXTT4=
EXTT5=
EXTT6=
EXTT7=
EXTT8=
EXTT9=
EXTT10=
EXTT11=
EXTT12=
EXTT13=
EXTT14=
EXTT15=
EXTT16=
EXTT17=
EXTT18=
EXTT19=
EXTT20=
PLAYORDER=
